<svg xmlns="http://www.w3.org/2000/svg" viewBox="0 0 150 20">
	<g>
		<path class="st0" d="M59.4,17.3c0.5,1.4,1.3,1.7,1.8,1.8v0.6c-0.7,0-5.5,0-6.2,0v-0.6c1.3-0.1,1.9-0.3,1.9-1c0-0.3-0.1-0.7-0.3-1.3
			l-1.6-4.5h-6.4l-1.1,2.9c-0.4,1-0.5,1.7-0.5,2.3c0,1.2,0.8,1.6,2.3,1.6l0,0.6c-1,0-4.5,0-5,0l0-0.6c0.7-0.2,1.5-0.7,2.1-2.4L52.5,0
			H53L59.4,17.3z M51.8,3.5l-3,8.2h6L51.8,3.5z"/>
		<path class="st0" d="M92,19.7v-0.6c1.8-0.1,2.2-0.4,2.2-2.4V3c0-2-0.4-2.3-2.2-2.4V0c0.7,0,6,0,6.8,0v0.6C97,0.7,96.6,1,96.6,3
			v13.7c0,2,0.4,2.3,2.2,2.4v0.6H92z"/>
		<path class="st0" d="M150,0v0.6c-1.8,0.1-2.2,0.6-2.2,2.7v16.4h-0.6L136.1,1.8v14.6c0,2,0.4,2.6,2.4,2.7v0.6c-0.6,0-4.6,0-5.2,0
			v-0.6c1.8-0.1,2.2-0.6,2.2-2.7V3c0-2-0.4-2.3-2.2-2.4V0h4.6l9.4,15.1V3.3c0-2-0.3-2.6-2.4-2.7V0H150z"/>
		<path class="st0" d="M13.3,16.7L13.3,16.7l-0.7-2.8c-0.5-2.3-1.4-3.2-3.7-3.7l-0.3-0.1c4-0.6,5.2-3.4,5.2-5.3
			c0-2.7-2.1-4.8-6.4-4.8C6.7,0,0.8,0,0,0v0.6C1.8,0.7,2.2,1,2.2,3v13.7c0,2-0.4,2.3-2.2,2.4v0.6c0.7,0,6,0,6.8,0v-0.6
			C5,19,4.7,18.7,4.7,16.7v-6.4h2.5c2.1,0,2.5,1.6,3,3.9l0.6,2.8c0.5,2.4,1.5,3,2.9,3c1,0,2-0.4,2.5-0.7v-0.6
			C13.8,19.7,13.7,18.4,13.3,16.7z M6.4,9.8H4.7V3c0-1.9,0.4-2.4,2-2.4c3.2,0,4.4,1.7,4.4,4.6C11.1,7.7,10.2,9.8,6.4,9.8z"/>
	</g>
</svg>
