<svg width="126" height="32" viewBox="0 0 126 32" fill="none" xmlns="http://www.w3.org/2000/svg">
<path d="M17.7646 32H15.3475L3.26228 15.4217C3.26228 15.4217 6.3911 15.4365 6.82113 15.4217C12.1594 15.1548 15.0658 14.6061 15.0806 8.85264C15.0806 6.89527 14.3837 5.48656 13.3605 4.31511C11.5663 2.25394 7.96293 2.53568 7.96293 2.53568H1.43837L0 0.563484L7.38461 0.578313C8.8823 0.563484 11.9815 0.355884 14.6951 2.86191C16.2521 4.30028 17.0528 6.31696 17.0528 8.83781C17.0528 16.4745 11.7442 17.0083 6.95459 17.1121L17.7646 32Z"/>
<path d="M65.3346 32H63.1399L49.3494 4.44856L36.0778 32H33.898L49.3197 0L65.3346 32Z"/>
<path d="M85.0121 0H83.0547V32H85.0121V0Z"/>
<path d="M125.153 32H122.929L105.816 0H108.041L125.153 32Z"/>
</svg>
