<svg  xmlns="http://www.w3.org/2000/svg" xmlns:xlink="http://www.w3.org/1999/xlink" x="0px" y="0px"
	 viewBox="0 0 180 156" style="enable-background:new 0 0 180 156;" xml:space="preserve">
<style type="text/css">
	.st0{fill:#DFDFDF;}
</style>
<g>
	<path class="st0" d="M178.3,1L90,154L1.7,1H178.3 M180,0H0l90,156L180,0L180,0z"/>
</g>
<g>
	<path d="M90,38.9c4.3,0,4.8,0,6.5,0.1c1.6,0.1,2.4,0.3,3,0.6c0.7,0.3,1.3,0.6,1.8,1.2c0.6,0.6,0.9,1.1,1.2,1.8
		c0.2,0.6,0.5,1.4,0.6,3c0.1,1.7,0.1,2.2,0.1,6.5s0,4.8-0.1,6.5c-0.1,1.6-0.3,2.4-0.6,3c-0.3,0.7-0.6,1.3-1.2,1.8
		c-0.6,0.6-1.1,0.9-1.8,1.2c-0.6,0.2-1.4,0.5-3,0.6c-1.7,0.1-2.2,0.1-6.5,0.1c-4.3,0-4.8,0-6.5-0.1c-1.6-0.1-2.4-0.3-3-0.6
		c-0.7-0.3-1.3-0.6-1.8-1.2c-0.6-0.6-0.9-1.1-1.2-1.8c-0.2-0.6-0.5-1.4-0.6-3c-0.1-1.7-0.1-2.2-0.1-6.5s0-4.8,0.1-6.5
		c0.1-1.6,0.3-2.4,0.6-3c0.3-0.7,0.6-1.3,1.2-1.8c0.6-0.6,1.1-0.9,1.8-1.2c0.6-0.2,1.4-0.5,3-0.6C85.2,38.9,85.7,38.9,90,38.9
		 M90,36c-4.3,0-4.9,0-6.6,0.1c-1.7,0.1-2.9,0.3-3.9,0.7c-1.1,0.4-1.9,1-2.8,1.8c-0.9,0.9-1.4,1.8-1.8,2.8c-0.4,1-0.7,2.2-0.7,3.9
		C74,47.1,74,47.7,74,52c0,4.3,0,4.9,0.1,6.6c0.1,1.7,0.3,2.9,0.7,3.9c0.4,1.1,1,1.9,1.8,2.8c0.9,0.9,1.8,1.4,2.8,1.8
		c1,0.4,2.2,0.7,3.9,0.7C85.1,68,85.7,68,90,68s4.9,0,6.6-0.1c1.7-0.1,2.9-0.3,3.9-0.7c1.1-0.4,1.9-1,2.8-1.8
		c0.9-0.9,1.4-1.8,1.8-2.8c0.4-1,0.7-2.2,0.7-3.9c0.1-1.7,0.1-2.3,0.1-6.6s0-4.9-0.1-6.6c-0.1-1.7-0.3-2.9-0.7-3.9
		c-0.4-1.1-1-1.9-1.8-2.8c-0.9-0.9-1.8-1.4-2.8-1.8c-1-0.4-2.2-0.7-3.9-0.7C94.9,36,94.3,36,90,36L90,36z"/>
	<path d="M90,43.8c-4.5,0-8.2,3.7-8.2,8.2s3.7,8.2,8.2,8.2s8.2-3.7,8.2-8.2S94.5,43.8,90,43.8z M90,57.3c-2.9,0-5.3-2.4-5.3-5.3
		s2.4-5.3,5.3-5.3s5.3,2.4,5.3,5.3S92.9,57.3,90,57.3z"/>
	<circle cx="98.5" cy="43.5" r="1.9"/>
</g>
</svg>
