<svg xmlns="http://www.w3.org/2000/svg" fill="none" viewBox="0 0 26 27">
  <g fill="#929292" clip-path="url(#clip0)">
    <path fill-rule="evenodd" d="M13.5 2.51C13.5 1 12.22 0 11 0C9.62 0 8.5 1 8.5 2.51V11.37C6.54 9.54 4.31 8.17 2.89 9.6C0.900005 11.59 5.08 15.49 8.34 21.43C10.6 25.55 13.89 27 17 27C21.69 27 25.5 23.19 25.5 18.5V12.51C25.5 11.13 24.39 10.01 23 10.01C22.44 10.01 21.92 10.19 21.5 10.51V10.5C21.5 9.12 20.39 8 19 8C18.37 8 17.79 8.24 17.35 8.63C16.99 7.68 16.08 7 15 7C14.44 7 13.92 7.19 13.5 7.5V2.51ZM17 26C21.14 26 24.5 22.41 24.5 18.5C24.5 18.5 24.5 20.81 24.5 18.5V14.75V12.5C24.5 11.67 23.83 11 23 11C22.17 11 21.5 11.67 21.5 12.5V13H20.5V10.51C20.5 9.67 19.83 9 19 9C18.17 9 17.5 9.67 17.5 10.51V12H16.5V9.51C16.5 8.67 15.83 8 15 8C14.17 8 13.5 8.67 13.5 9.51V13H12.5V2.51C12.5 1.67 11.83 1 11 1C10.17 1 9.5 1.67 9.5 2.51V13.8C7.44 11.6 4.73 9.18 3.62 10.3C2.53 11.39 5.33 14.41 9.25 20.99C11.01 23.95 13.24 26 17 26Z" clip-rule="evenodd"/>
    <path d="M21.85 2.64001L19.37.16001C19.17-.0399902 18.86-.0399902 18.66.16001 18.46.36001 18.46.67001 18.66.87001L20.29 2.50001H15C14.72 2.50001 14.5 2.72001 14.5 3.00001 14.5 3.28001 14.72 3.50001 15 3.50001H20.28L18.67 5.11001C18.47 5.31001 18.47 5.62001 18.67 5.82001 18.77 5.92001 18.9 5.97001 19.02 5.97001 19.14 5.97001 19.28 5.92001 19.37 5.82001L21.85 3.34001C22.05 3.16001 22.05 2.84001 21.85 2.64001zM7 2.51002H1.7L3.33.88002C3.53.68002 3.53.37002 3.33.17002 3.13-.0299805 2.82-.0299805 2.62.17002L.15 2.64002C-.05 2.84002-.05 3.15002.15 3.35002L2.63 5.83002C2.73 5.93002 2.86 5.98002 2.98 5.98002 3.1 5.98002 3.24 5.93002 3.33 5.83002 3.53 5.63002 3.53 5.32002 3.33 5.12002L1.72 3.51002H7C7.28 3.51002 7.5 3.29002 7.5 3.01002 7.5 2.73002 7.28 2.51002 7 2.51002z"/>
  </g>
  <defs>
    <clipPath id="clip0">
      <path fill="#fff" d="M0 0H25.5V27H0z"/>
    </clipPath>
  </defs>
</svg>
